<svg width="96" height="32" viewBox="0 0 96 32" fill="white" xmlns="http://www.w3.org/2000/svg">
<path d="M19.576 15.648C19.784 15.648 19.944 15.744 20.056 15.936C20.184 16.128 20.248 16.392 20.248 16.728C20.248 17.352 20.096 17.848 19.792 18.216C18.896 19.288 18.024 20.04 17.176 20.472C16.344 20.904 15.336 21.12 14.152 21.12C13.32 21.12 12.552 21.016 11.848 20.808C11.144 20.6 10.288 20.288 9.28 19.872C8.368 19.472 7.488 19.144 6.64 18.888C5.824 20.376 4.6 21.12 2.968 21.12C2.072 21.12 1.36 20.92 0.832 20.52C0.288 20.104 0.016 19.576 0.016 18.936C0.016 18.152 0.392 17.504 1.144 16.992C1.896 16.464 2.896 16.2 4.144 16.2H4.456L4.888 9.216C4.984 7.616 5.272 6.296 5.752 5.256C6.232 4.216 6.896 3.328 7.744 2.592C8.48 1.952 9.32 1.472 10.264 1.152C11.208 0.815999 12.208 0.647999 13.264 0.647999C14.992 0.647999 16.32 1.096 17.248 1.992C18.176 2.888 18.64 4.056 18.64 5.496C18.64 6.472 18.464 7.264 18.112 7.872C17.76 8.464 17.272 8.76 16.648 8.76C16.2 8.76 15.848 8.656 15.592 8.448C15.336 8.224 15.208 7.912 15.208 7.512C15.208 7.368 15.24 7.104 15.304 6.72C15.4 6.272 15.448 5.872 15.448 5.52C15.448 4.848 15.248 4.32 14.848 3.936C14.464 3.536 13.872 3.336 13.072 3.336C11.664 3.336 10.576 3.8 9.808 4.728C9.04 5.64 8.552 7.08 8.344 9.048L7.792 14.496C7.712 15.264 7.608 15.928 7.48 16.488C8.504 16.664 9.784 16.944 11.32 17.328C12.216 17.552 12.904 17.712 13.384 17.808C13.864 17.904 14.288 17.952 14.656 17.952C15.584 17.952 16.376 17.8 17.032 17.496C17.704 17.176 18.336 16.672 18.928 15.984C19.12 15.76 19.336 15.648 19.576 15.648ZM32.4623 13.632C32.6703 13.632 32.8303 13.736 32.9423 13.944C33.0543 14.152 33.1103 14.416 33.1103 14.736C33.1103 15.504 32.8783 15.96 32.4143 16.104C31.4543 16.44 30.3983 16.632 29.2463 16.68C28.9423 18.024 28.3423 19.104 27.4463 19.92C26.5503 20.72 25.5343 21.12 24.3983 21.12C23.4383 21.12 22.6143 20.888 21.9263 20.424C21.2543 19.96 20.7423 19.344 20.3903 18.576C20.0383 17.808 19.8623 16.976 19.8623 16.08C19.8623 14.864 20.0943 13.784 20.5583 12.84C21.0223 11.88 21.6623 11.136 22.4783 10.608C23.2943 10.064 24.1983 9.792 25.1903 9.792C26.4063 9.792 27.3823 10.216 28.1183 11.064C28.8703 11.896 29.3103 12.928 29.4383 14.16C30.1903 14.112 31.0863 13.952 32.1263 13.68C32.2543 13.648 32.3663 13.632 32.4623 13.632ZM24.5903 18.576C25.1023 18.576 25.5423 18.368 25.9103 17.952C26.2943 17.536 26.5503 16.936 26.6783 16.152C26.1823 15.816 25.7983 15.376 25.5263 14.832C25.2703 14.288 25.1423 13.712 25.1423 13.104C25.1423 12.848 25.1663 12.592 25.2143 12.336H25.0943C24.4543 12.336 23.9183 12.648 23.4863 13.272C23.0703 13.88 22.8623 14.744 22.8623 15.864C22.8623 16.744 23.0303 17.416 23.3663 17.88C23.7183 18.344 24.1263 18.576 24.5903 18.576ZM43.3384 15.696C43.5464 15.696 43.7064 15.8 43.8184 16.008C43.9464 16.2 44.0104 16.448 44.0104 16.752C44.0104 17.12 43.9544 17.408 43.8424 17.616C43.7304 17.824 43.5544 18.008 43.3144 18.168C41.9384 19.096 40.9304 19.784 40.2904 20.232L38.7544 21.264C38.1464 24.576 37.3464 27.176 36.3544 29.064C35.3784 30.968 34.1304 31.92 32.6104 31.92C31.7944 31.92 31.1304 31.664 30.6184 31.152C30.1064 30.656 29.8504 30 29.8504 29.184C29.8504 28.048 30.2984 26.824 31.1944 25.512C32.0904 24.216 33.7704 22.616 36.2344 20.712L36.3784 19.776C36.1064 20.208 35.7464 20.544 35.2984 20.784C34.8664 21.008 34.4344 21.12 34.0024 21.12C33.0104 21.12 32.2184 20.76 31.6264 20.04C31.0344 19.32 30.7384 18.376 30.7384 17.208C30.7384 15.928 31.0344 14.72 31.6264 13.584C32.2184 12.432 33.0024 11.512 33.9784 10.824C34.9704 10.12 36.0184 9.768 37.1224 9.768C37.4744 9.768 37.7064 9.84 37.8184 9.984C37.9464 10.112 38.0504 10.352 38.1304 10.704C38.4344 10.64 38.7864 10.608 39.1864 10.608C39.5864 10.608 39.8664 10.672 40.0264 10.8C40.2024 10.912 40.2904 11.144 40.2904 11.496C40.2904 11.688 40.2824 11.84 40.2664 11.952C40.2024 12.448 40.0024 13.704 39.6664 15.72C39.6024 16.104 39.5304 16.528 39.4504 16.992C39.3864 17.44 39.3144 17.92 39.2344 18.432C40.4664 17.472 41.6504 16.624 42.7864 15.888C42.9944 15.76 43.1784 15.696 43.3384 15.696ZM34.8664 18.696C35.2344 18.696 35.5864 18.472 35.9224 18.024C36.2584 17.576 36.4984 16.936 36.6424 16.104L37.4104 12C36.7544 12.016 36.1464 12.272 35.5864 12.768C35.0264 13.248 34.5784 13.888 34.2424 14.688C33.9064 15.488 33.7384 16.336 33.7384 17.232C33.7384 17.728 33.8344 18.096 34.0264 18.336C34.2344 18.576 34.5144 18.696 34.8664 18.696ZM32.8744 29.592C33.2744 29.592 33.7224 29.112 34.2184 28.152C34.7304 27.192 35.2184 25.664 35.6824 23.568C34.4504 24.624 33.5624 25.576 33.0184 26.424C32.4744 27.272 32.2024 28.016 32.2024 28.656C32.2024 28.928 32.2504 29.152 32.3464 29.328C32.4584 29.504 32.6344 29.592 32.8744 29.592ZM54.7748 13.632C54.9828 13.632 55.1428 13.736 55.2548 13.944C55.3668 14.152 55.4228 14.416 55.4228 14.736C55.4228 15.504 55.1908 15.96 54.7268 16.104C53.7668 16.44 52.7108 16.632 51.5588 16.68C51.2548 18.024 50.6548 19.104 49.7588 19.92C48.8628 20.72 47.8468 21.12 46.7108 21.12C45.7508 21.12 44.9268 20.888 44.2388 20.424C43.5668 19.96 43.0548 19.344 42.7028 18.576C42.3508 17.808 42.1748 16.976 42.1748 16.08C42.1748 14.864 42.4068 13.784 42.8708 12.84C43.3348 11.88 43.9748 11.136 44.7908 10.608C45.6068 10.064 46.5108 9.792 47.5028 9.792C48.7188 9.792 49.6948 10.216 50.4308 11.064C51.1828 11.896 51.6228 12.928 51.7508 14.16C52.5028 14.112 53.3988 13.952 54.4388 13.68C54.5668 13.648 54.6788 13.632 54.7748 13.632ZM46.9028 18.576C47.4148 18.576 47.8548 18.368 48.2228 17.952C48.6068 17.536 48.8628 16.936 48.9908 16.152C48.4948 15.816 48.1108 15.376 47.8388 14.832C47.5828 14.288 47.4548 13.712 47.4548 13.104C47.4548 12.848 47.4788 12.592 47.5268 12.336H47.4068C46.7668 12.336 46.2308 12.648 45.7988 13.272C45.3828 13.88 45.1748 14.744 45.1748 15.864C45.1748 16.744 45.3428 17.416 45.6788 17.88C46.0308 18.344 46.4388 18.576 46.9028 18.576ZM64.6763 15.648C64.8843 15.648 65.0443 15.744 65.1563 15.936C65.2843 16.128 65.3483 16.392 65.3483 16.728C65.3483 17.368 65.1963 17.864 64.8923 18.216C64.2043 19.064 63.4523 19.76 62.6363 20.304C61.8203 20.848 60.8843 21.12 59.8283 21.12C56.5643 21.12 54.9323 18.824 54.9323 14.232C54.9323 13.528 54.9563 12.816 55.0043 12.096H54.0683C53.5883 12.096 53.2603 12.008 53.0843 11.832C52.9243 11.656 52.8443 11.376 52.8443 10.992C52.8443 10.096 53.2043 9.648 53.9243 9.648H55.2923C55.5643 7.888 55.9803 6.28 56.5403 4.824C57.1003 3.368 57.7723 2.208 58.5563 1.344C59.3563 0.479999 60.2123 0.0479994 61.1243 0.0479994C61.7963 0.0479994 62.3243 0.343999 62.7083 0.935999C63.0923 1.528 63.2843 2.272 63.2843 3.168C63.2843 5.648 62.2443 7.808 60.1643 9.648H62.8523C63.1083 9.648 63.2923 9.704 63.4043 9.816C63.5163 9.928 63.5723 10.136 63.5723 10.44C63.5723 11.544 62.6683 12.096 60.8603 12.096H57.9323C57.9003 12.896 57.8843 13.52 57.8843 13.968C57.8843 15.632 58.0763 16.8 58.4603 17.472C58.8603 18.144 59.4843 18.48 60.3323 18.48C61.0203 18.48 61.6283 18.272 62.1563 17.856C62.6843 17.44 63.3083 16.816 64.0283 15.984C64.2203 15.76 64.4363 15.648 64.6763 15.648ZM60.4763 2.352C60.2363 2.352 59.9643 2.656 59.6603 3.264C59.3723 3.856 59.0923 4.688 58.8203 5.76C58.5643 6.816 58.3483 7.992 58.1723 9.288C59.1163 8.472 59.8203 7.56 60.2843 6.552C60.7643 5.528 61.0043 4.6 61.0043 3.768C61.0043 2.824 60.8283 2.352 60.4763 2.352ZM75.6822 15.696C75.8902 15.696 76.0502 15.8 76.1622 16.008C76.2902 16.2 76.3542 16.448 76.3542 16.752C76.3542 17.12 76.2982 17.408 76.1862 17.616C76.0742 17.824 75.8982 18.008 75.6582 18.168L71.0502 21.264C70.4422 24.576 69.6422 27.176 68.6502 29.064C67.6742 30.968 66.4262 31.92 64.9062 31.92C64.0902 31.92 63.4262 31.664 62.9142 31.152C62.4022 30.656 62.1462 30 62.1462 29.184C62.1462 28.432 62.3142 27.664 62.6502 26.88C63.0022 26.096 63.6422 25.192 64.5702 24.168C65.5142 23.16 66.8422 22 68.5542 20.688L68.6262 20.136C68.7382 19.544 68.8662 18.696 69.0102 17.592C68.6902 18.744 68.2422 19.624 67.6662 20.232C67.0902 20.824 66.4822 21.12 65.8422 21.12C65.1222 21.12 64.5302 20.792 64.0662 20.136C63.6182 19.464 63.3942 18.632 63.3942 17.64C63.3942 16.44 63.4742 15.344 63.6342 14.352C63.7942 13.344 64.0582 12.28 64.4262 11.16C64.5862 10.68 64.8102 10.336 65.0982 10.128C65.3862 9.92 65.8422 9.816 66.4662 9.816C66.8182 9.816 67.0582 9.872 67.1862 9.984C67.3302 10.096 67.4022 10.264 67.4022 10.488C67.4022 10.616 67.3142 11.048 67.1382 11.784C66.9782 12.376 66.8502 12.912 66.7542 13.392C66.6262 14.048 66.5142 14.68 66.4182 15.288C66.3222 15.88 66.2742 16.368 66.2742 16.752C66.2742 17.36 66.4422 17.664 66.7782 17.664C67.0182 17.664 67.3142 17.424 67.6662 16.944C68.0342 16.464 68.4182 15.736 68.8182 14.76C69.2342 13.784 69.6342 12.584 70.0182 11.16C70.1462 10.68 70.3382 10.336 70.5942 10.128C70.8662 9.92 71.2662 9.816 71.7942 9.816C72.1622 9.816 72.4182 9.864 72.5622 9.96C72.7062 10.056 72.7782 10.216 72.7782 10.44C72.7782 10.84 72.5702 12.216 72.1542 14.568L71.5302 18.432C72.7622 17.504 73.9622 16.656 75.1302 15.888C75.3382 15.76 75.5222 15.696 75.6822 15.696ZM65.1702 29.592C65.5702 29.592 66.0182 29.128 66.5142 28.2C67.0102 27.272 67.5062 25.728 68.0022 23.568C66.7702 24.608 65.8742 25.552 65.3142 26.4C64.7702 27.264 64.4982 28.016 64.4982 28.656C64.4982 28.928 64.5462 29.152 64.6422 29.328C64.7542 29.504 64.9302 29.592 65.1702 29.592ZM87.9289 15.648C88.1369 15.648 88.2969 15.744 88.4089 15.936C88.5369 16.128 88.6009 16.392 88.6009 16.728C88.6009 17.368 88.4489 17.864 88.1449 18.216C87.4569 19.064 86.7129 19.76 85.9129 20.304C85.1289 20.848 84.2329 21.12 83.2249 21.12C82.3769 21.12 81.6889 20.816 81.1609 20.208C80.2489 20.8 79.2969 21.104 78.3049 21.12C78.0969 24.208 77.6249 26.784 76.8889 28.848C76.1529 30.928 75.0729 31.968 73.6489 31.968C72.7849 31.968 72.1449 31.656 71.7289 31.032C71.3129 30.408 71.1049 29.544 71.1049 28.44C71.1049 26.872 71.4649 25.04 72.1849 22.944C72.9049 20.864 74.0169 18.568 75.5209 16.056C75.5209 13.72 75.5049 12.096 75.4729 11.184C75.4569 10.72 75.6409 10.352 76.0249 10.08C76.4089 9.808 76.8889 9.672 77.4649 9.672C77.8009 9.672 78.0409 9.744 78.1849 9.888C78.3449 10.016 78.4329 10.28 78.4489 10.68C78.4489 11.08 78.4569 11.376 78.4729 11.568C78.9849 10.928 79.4889 10.472 79.9849 10.2C80.4809 9.912 81.0089 9.768 81.5689 9.768C82.4649 9.768 83.1929 10.128 83.7529 10.848C84.3289 11.568 84.6169 12.512 84.6169 13.68C84.6169 14.528 84.4809 15.352 84.2089 16.152C83.9369 16.952 83.5609 17.68 83.0809 18.336C83.4169 18.432 83.6969 18.48 83.9209 18.48C84.4489 18.48 84.9529 18.288 85.4329 17.904C85.9129 17.52 86.5289 16.88 87.2809 15.984C87.4729 15.76 87.6889 15.648 87.9289 15.648ZM78.4249 18.816C79.0009 18.688 79.5289 18.376 80.0089 17.88C80.5049 17.368 80.8969 16.744 81.1849 16.008C81.4729 15.256 81.6169 14.472 81.6169 13.656C81.6169 13.176 81.5209 12.816 81.3289 12.576C81.1369 12.32 80.8809 12.192 80.5609 12.192C79.9849 12.192 79.2889 12.8 78.4729 14.016C78.4569 14.72 78.4489 15.752 78.4489 17.112C78.4489 17.848 78.4409 18.416 78.4249 18.816ZM73.8409 29.616C74.2729 29.616 74.6329 28.672 74.9209 26.784C75.2089 24.912 75.3929 22.576 75.4729 19.776C74.7849 21.376 74.2409 22.904 73.8409 24.36C73.4409 25.816 73.2409 27.04 73.2409 28.032C73.2409 28.544 73.3049 28.936 73.4329 29.208C73.5449 29.48 73.6809 29.616 73.8409 29.616ZM95.2596 16.368C95.4676 16.368 95.6276 16.464 95.7396 16.656C95.8676 16.848 95.9316 17.112 95.9316 17.448C95.9316 18.024 95.7956 18.52 95.5236 18.936C95.0756 19.624 94.4836 20.16 93.7476 20.544C93.0276 20.928 92.1636 21.12 91.1556 21.12C89.6196 21.12 88.4276 20.664 87.5796 19.752C86.7316 18.824 86.3076 17.576 86.3076 16.008C86.3076 14.904 86.5396 13.88 87.0036 12.936C87.4676 11.976 88.1076 11.216 88.9236 10.656C89.7556 10.096 90.6916 9.816 91.7316 9.816C92.6596 9.816 93.4036 10.096 93.9636 10.656C94.5236 11.2 94.8036 11.944 94.8036 12.888C94.8036 13.992 94.4036 14.944 93.6036 15.744C92.8196 16.528 91.4756 17.152 89.5716 17.616C89.9556 18.352 90.6036 18.72 91.5156 18.72C92.1716 18.72 92.7076 18.568 93.1236 18.264C93.5556 17.96 94.0516 17.448 94.6116 16.728C94.8036 16.488 95.0196 16.368 95.2596 16.368ZM91.3236 12.168C90.7316 12.168 90.2276 12.512 89.8116 13.2C89.4116 13.888 89.2116 14.72 89.2116 15.696V15.744C90.1556 15.52 90.8996 15.184 91.4436 14.736C91.9876 14.288 92.2596 13.768 92.2596 13.176C92.2596 12.872 92.1716 12.632 91.9956 12.456C91.8356 12.264 91.6116 12.168 91.3236 12.168Z" fill="white"/>
</svg>
